# Blender 4.2.0
# www.blender.org
mtllib pin0.3.mtl
o Cube
v 3.000000 0.010000 -3.000000
v 3.000000 -0.010000 -3.000000
v 3.000000 0.010000 3.000000
v 3.000000 -0.010000 3.000000
v -3.000000 0.010000 -3.000000
v -3.000000 -0.010000 -3.000000
v -3.000000 0.010000 3.000000
v -3.000000 -0.010000 3.000000
vn -0.0000 1.0000 -0.0000
vn -0.0000 -0.0000 1.0000
vn -1.0000 -0.0000 -0.0000
vn -0.0000 -1.0000 -0.0000
vn 1.0000 -0.0000 -0.0000
vn -0.0000 -0.0000 -1.0000
vt 0.625000 0.500000
vt 0.875000 0.500000
vt 0.875000 0.750000
vt 0.625000 0.750000
vt 0.375000 0.750000
vt 0.625000 1.000000
vt 0.375000 1.000000
vt 0.375000 0.000000
vt 0.625000 0.000000
vt 0.625000 0.250000
vt 0.375000 0.250000
vt 0.125000 0.500000
vt 0.375000 0.500000
vt 0.125000 0.750000
s 0
usemtl Material
f 1/1/1 5/2/1 7/3/1 3/4/1
f 4/5/2 3/4/2 7/6/2 8/7/2
f 8/8/3 7/9/3 5/10/3 6/11/3
f 6/12/4 2/13/4 4/5/4 8/14/4
f 2/13/5 1/1/5 3/4/5 4/5/5
f 6/11/6 5/10/6 1/1/6 2/13/6
o 10492_Bowling_Pin_v1_max2011_iteration-2
v 4.734321 4.069982 0.619625
v 2.986224 0.626156 -1.518278
v 2.123383 0.086350 -2.044901
v 0.720272 0.083858 -2.805158
v -0.640570 1.133551 -3.521868
v -0.983627 0.017031 -2.680805
v -2.360841 2.570647 -3.501313
v -2.497163 0.075363 -1.605630
v -4.734321 4.069982 -0.619625
v -3.060365 0.224078 0.392315
v -2.390419 3.297559 3.828224
v -2.234734 0.012054 1.846343
v -1.123799 0.018904 2.715541
v 0.933695 0.217918 2.949250
v 2.420352 0.083752 1.734465
v 0.676525 28.036922 -2.253114
v -1.497664 26.468174 -1.801248
v -2.317225 28.139399 -0.545159
v -2.318467 26.271252 0.106342
v -1.649388 28.640623 1.838366
v -1.880150 25.876156 1.433330
v -0.807543 25.983742 2.213432
v 1.497637 26.468191 1.801270
v 2.965380 21.918701 -1.539585
v 4.581064 16.536570 -3.023003
v -4.026773 17.237356 3.408260
v 4.361644 17.248379 2.902170
v 5.310682 16.501989 -1.365317
v 6.124646 12.893128 0.447113
v 3.221831 13.862574 -5.063013
v 1.189874 16.278030 -5.447263
v 0.617785 12.084023 -6.127764
v 0.035912 15.017332 -5.836615
v -2.166312 14.357398 -5.508585
v -4.283394 14.637524 -4.103130
v -4.697594 11.177331 -3.882425
v -5.208370 16.566769 -1.626516
v -5.860492 12.634698 -1.639821
v -5.675279 15.951405 0.078664
v -5.322676 16.529436 1.288098
v -5.188534 14.272135 2.878318
v -3.640159 13.547980 4.842189
v -1.512019 16.730394 5.238699
v -1.168909 11.857643 5.998841
v 0.291266 14.045301 5.974368
v 2.805479 12.918607 5.406337
v 2.719953 16.390041 4.824027
v 4.366999 10.684219 4.235062
v 5.547845 14.318494 2.120714
v 4.723865 14.259494 3.592731
v 5.539025 8.795030 2.262837
v 5.677665 7.524066 -0.647014
v 4.686164 4.019220 -1.008685
v 4.593641 7.358349 -3.316349
v 3.401765 3.762820 -3.237181
v 3.328897 8.441052 -4.888751
v -1.046853 6.360986 -5.394810
v -3.048067 8.772139 -5.074416
v -3.832010 6.436772 -3.956417
v -5.433331 8.211679 -2.140618
v -3.946016 2.847838 -1.880295
v -4.686164 4.019220 1.008685
v -5.397123 7.540759 1.993448
v -3.634756 3.229678 2.660720
v -0.709795 6.527408 5.470236
v 1.546055 4.100757 4.570871
v 4.643802 7.442816 3.294861
v 3.312148 6.458359 4.352314
v 2.722974 17.849699 -4.203128
v -0.966665 17.537621 -5.021319
v -2.736278 17.471581 -4.338555
v -4.116535 17.585247 -3.006405
v 0.961766 17.512236 5.032349
v 5.033803 17.716351 0.594642
v 2.278806 24.678154 -1.088098
v 2.973837 22.838058 -0.123309
v 1.662476 25.499067 -1.791902
v 1.661958 22.553137 -2.615072
v 0.104540 22.545626 -3.103743
v -0.933880 23.131863 -2.734337
v -2.190979 23.019173 -1.953322
v -2.222852 25.030842 -1.090772
v -2.934126 22.989609 -0.406469
v -2.577421 23.130432 1.309614
v -1.661958 22.553137 2.615072
v -0.168835 22.475260 3.120807
v 0.967456 23.067764 2.738796
v 1.895977 23.070164 2.187515
v 2.895330 22.469500 1.187578
v 2.300893 28.276630 -0.702202
v 3.543210 32.874519 -0.422500
v 3.431773 32.535389 0.535635
v 1.742960 28.096359 -1.612747
v 2.689083 32.637463 -2.246400
v -2.945896 32.681385 -1.908867
v -3.337802 32.250282 -0.596837
v -3.400696 32.656738 0.841422
v -2.705227 32.319244 2.115293
v -1.388970 32.197079 3.111893
v -0.747938 28.661732 2.354509
v 0.460154 32.528011 3.470918
v 1.957020 33.075413 2.955839
v 3.344234 35.394405 -0.075462
v 2.774516 35.243610 -1.789439
v 2.077023 36.834206 -1.593005
v 2.134996 34.039299 -2.765416
v -0.402054 35.119274 -3.332046
v -1.958555 35.093544 -2.775802
v -2.797736 35.998623 -1.246933
v -3.380895 34.627186 -0.696706
v -3.495201 34.988350 -0.009808
v -2.737388 35.334888 1.934410
v -1.565369 33.967056 3.162835
v -1.278312 35.689777 2.935287
v 0.394398 35.283550 3.344784
v 2.832049 35.161526 1.852933
v 1.997562 36.015816 2.346411
v 1.307793 36.015324 -2.752551
v 0.788059 37.508755 -1.497906
v 0.208985 36.837185 -2.584222
v -0.949347 37.132816 -2.171204
v -2.267446 37.082253 -0.817844
v -2.406874 36.874100 1.042503
v -1.131902 36.946922 2.319329
v 0.633199 36.974895 2.402095
v 1.726121 37.154488 1.582513
v 5.739826 11.606653 -2.278660
v 4.842937 12.112451 -3.728960
v 1.135820 7.981616 -5.702966
v -2.271402 11.066168 -5.682812
v -5.809195 8.550128 -1.039563
v -5.973272 11.496891 1.483520
v -4.274017 9.511614 4.235350
v -2.518906 7.844336 5.246891
v 1.587050 9.431865 5.824557
v 1.722336 2.338090 -3.751817
v 0.419715 3.099997 -4.417491
v -0.419715 3.099997 4.417491
v 3.471930 2.807922 2.645811
v -0.334406 28.260267 -2.360932
v -1.552592 28.628693 -1.959103
v -2.340426 28.600719 0.824345
v 0.196481 28.247814 2.384413
v 1.496188 28.655952 1.998433
v 2.286324 28.006882 0.636799
v 2.351512 25.758112 0.569809
v 0.057789 25.226686 -2.461123
v -0.057830 25.226690 2.461120
v 2.903641 0.027314 0.551823
v 2.662858 36.871799 -0.031510
v -1.177168 37.684456 0.482171
v 0.077828 37.821568 0.829710
v 1.250801 37.689163 -0.022110
v -0.630220 37.769718 -0.798918
v 1.047515 32.103279 -3.214934
v 0.857534 34.508827 -3.356977
v -0.445910 32.581013 -3.455061
v -1.989686 32.625439 -2.860906
v 3.042738 32.877384 1.825150
vn 0.5786 -0.8115 0.0819
vn 0.9159 -0.3318 -0.2260
vn 0.9306 -0.3268 0.1651
vn 0.3933 -0.4012 -0.8273
vn 0.6873 -0.3277 -0.6483
vn 0.3942 -0.8204 -0.4142
vn 0.7611 -0.5513 -0.3417
vn -0.5086 -0.7999 -0.3185
vn -0.6881 -0.7222 0.0706
vn -0.8298 -0.3858 -0.4032
vn -0.9240 -0.3257 0.2003
vn -0.9415 -0.3126 -0.1259
vn -0.7544 -0.3577 0.5504
vn -0.2021 -0.8140 0.5445
vn -0.4892 -0.3466 0.8003
vn -0.4481 -0.8226 0.3500
vn -0.0945 -0.3722 0.9233
vn 0.2078 -0.7337 0.6469
vn 0.7319 -0.3826 0.5638
vn 0.3156 -0.3277 0.8905
vn 0.4684 -0.7960 0.3834
vn 0.6235 0.0975 -0.7757
vn 0.7155 -0.1021 -0.6911
vn 0.9516 -0.1243 -0.2810
vn -0.6156 0.0570 -0.7860
vn -0.1562 -0.1302 -0.9791
vn 0.0391 0.1536 -0.9874
vn -0.6206 -0.1893 -0.7610
vn -0.9372 -0.1616 0.3092
vn -0.9593 -0.1166 -0.2573
vn -0.9949 0.0387 0.0927
vn -0.7953 0.1008 0.5978
vn -0.6579 -0.1654 0.7348
vn 0.6354 0.0482 0.7707
vn 0.1257 -0.1279 0.9838
vn 0.0054 0.1673 0.9859
vn 0.5931 -0.1910 0.7821
vn 0.7923 0.2603 -0.5518
vn 0.8191 0.3526 -0.4525
vn 0.9419 0.2540 -0.2198
vn 0.5252 0.3362 -0.7817
vn 0.2269 0.2661 -0.9369
vn 0.5093 0.3162 -0.8004
vn -0.3458 0.2780 -0.8962
vn 0.0759 0.3283 -0.9415
vn -0.1792 0.3231 -0.9292
vn -0.5037 0.3144 -0.8046
vn -0.7250 0.2861 -0.6266
vn -0.7623 0.3286 -0.5576
vn -0.9117 0.2669 -0.3124
vn -0.9472 0.2940 -0.1279
vn -0.9762 0.2170 0.0054
vn -0.7130 0.3084 0.6297
vn -0.8679 0.2735 0.4148
vn -0.9219 0.2809 0.2669
vn 0.1546 0.3170 0.9358
vn 0.4800 0.2551 0.8394
vn 0.3280 0.2806 0.9020
vn 0.6448 0.2801 0.7112
vn 0.7903 0.3122 0.5272
vn 0.9379 -0.0057 -0.3470
vn 0.7706 0.0302 -0.6367
vn -0.3653 0.1363 -0.9209
vn -0.0256 0.1707 -0.9850
vn 0.1088 0.0082 -0.9940
vn -0.7219 0.1514 -0.6752
vn -0.9628 0.0518 -0.2654
vn -0.7685 -0.0177 -0.6396
vn -0.9703 -0.0088 0.2419
vn -0.8664 0.1266 0.4830
vn -0.5892 0.0955 0.8023
vn 0.7733 0.1259 0.6214
vn 0.9264 0.1440 0.3478
vn 0.9768 -0.1806 -0.1151
vn 0.8150 -0.1962 -0.5453
vn 0.5496 -0.1383 -0.8239
vn -0.9833 -0.1385 -0.1177
vn -0.9208 -0.1887 0.3412
vn -0.4437 -0.1755 0.8788
vn -0.7206 -0.0938 0.6869
vn 0.9392 0.3204 0.1233
vn 0.9964 0.0600 0.0600
vn 0.5317 0.1121 -0.8395
vn -0.2806 0.2790 0.9184
vn 0.0574 0.1315 0.9897
vn 0.9056 0.1748 -0.3865
vn -0.9001 0.1686 -0.4018
vn -0.5026 0.3141 0.8054
vn -0.4153 0.0879 0.9054
vn -0.0611 0.3203 0.9453
vn 0.9886 -0.0585 -0.1388
vn 0.9814 -0.0306 0.1895
vn 0.7683 -0.1182 -0.6290
vn -0.1360 -0.1064 -0.9850
vn 0.3239 -0.1659 -0.9314
vn -0.5420 -0.1025 -0.8341
vn -0.8430 -0.0811 -0.5318
vn -0.7726 -0.1280 0.6219
vn -0.3017 -0.1740 0.9374
vn 0.1126 -0.1155 0.9869
vn -0.3901 -0.1592 0.9069
vn 0.8629 -0.0690 0.5007
vn 0.5418 -0.0452 0.8393
vn 0.9538 -0.1160 0.2771
vn 0.8150 0.2528 -0.5214
vn 0.6046 0.0792 -0.7926
vn 0.3947 0.4065 -0.8240
vn 0.2464 0.1345 -0.9598
vn 0.0784 0.6226 -0.7786
vn -0.7033 0.6502 0.2875
vn -0.9740 0.2244 0.0297
vn -0.7888 0.2538 0.5597
vn -0.4350 0.0540 0.8988
vn -0.3681 0.3296 0.8694
vn 0.1235 0.2543 0.9592
vn 0.8251 0.2374 0.5126
vn 0.5805 0.3933 0.7130
vn 0.9642 0.2642 -0.0222
vn 0.6086 0.6372 -0.4729
vn -0.1273 0.2478 -0.9604
vn -0.3117 0.7099 -0.6316
vn -0.5769 0.2447 -0.7793
vn -0.6563 0.7114 -0.2513
vn -0.8047 0.4098 -0.4296
vn -0.3104 0.6826 0.6616
vn 0.1555 0.6895 0.7074
vn 0.5073 0.7466 0.4303
vn 0.7654 0.6435 -0.0025
vn -0.2007 -0.2394 -0.9500
vn -0.3643 -0.0206 -0.9310
vn -0.5149 -0.1330 -0.8468
vn -0.8983 -0.1636 -0.4077
vn -0.1002 -0.2310 0.9678
vn 0.2624 -0.1053 0.9592
vn -0.2040 0.0007 0.9790
vn 0.4592 0.0664 0.8858
vn 0.7120 -0.0426 0.7009
vn 0.9303 -0.1241 0.3452
vn 0.0854 -0.3488 -0.9333
vn 0.1886 -0.1650 -0.9681
vn -0.5155 -0.3825 -0.7668
vn -0.6727 -0.2435 -0.6987
vn -0.1533 -0.4723 -0.8680
vn 0.5724 -0.2268 0.7880
vn 0.7944 -0.2112 0.5695
vn 0.3105 -0.0963 -0.9457
vn -0.9653 -0.0974 0.2424
vn 0.9639 0.1065 0.2440
vn -0.2017 -0.8427 -0.4991
vn 0.1530 -0.8153 -0.5584
vn 0.3233 0.9460 -0.0218
vn 0.2210 0.8895 -0.4000
vn -0.1511 0.9675 -0.2027
vn -0.3218 0.9363 0.1404
vn 0.0233 0.9729 0.2302
vn -0.9735 -0.1568 -0.1665
vn -0.9368 0.1057 -0.3336
vn 0.9554 0.2910 -0.0495
vn 0.8690 0.3298 0.3688
vt 0.142649 0.035655
vt 0.188020 0.130717
vt 0.145050 0.135169
vt 0.307333 0.073234
vt 0.267540 0.118897
vt 0.266470 0.018798
vt 0.207128 0.039297
vt 0.494495 0.011336
vt 0.581486 0.021332
vt 0.508000 0.084163
vt 0.592849 0.119986
vt 0.548764 0.118391
vt 0.649021 0.104493
vt 0.716901 0.029572
vt 0.696457 0.111481
vt 0.670892 0.021940
vt 0.750066 0.104195
vt 0.075843 0.024368
vt 0.087547 0.111843
vt 0.042730 0.108554
vt 0.102011 0.039805
vt 0.336552 0.669356
vt 0.337764 0.739712
vt 0.297393 0.745204
vt 0.450352 0.686832
vt 0.406925 0.739627
vt 0.390529 0.663106
vt 0.446933 0.747580
vt 0.536625 0.752529
vt 0.499315 0.737150
vt 0.527688 0.686176
vt 0.568971 0.685404
vt 0.577550 0.756414
vt 0.658448 0.705649
vt 0.637056 0.745769
vt 0.636181 0.674046
vt 0.657382 0.754880
vt 0.257808 0.438617
vt 0.281198 0.574536
vt 0.216630 0.441861
vt 0.311526 0.457922
vt 0.346306 0.427299
vt 0.335518 0.588706
vt 0.423986 0.602828
vt 0.376073 0.582680
vt 0.399150 0.452105
vt 0.440363 0.451443
vt 0.461367 0.600537
vt 0.482110 0.452899
vt 0.520308 0.431002
vt 0.523153 0.591460
vt 0.557079 0.415618
vt 0.634744 0.454008
vt 0.573528 0.604009
vt 0.586996 0.432619
vt 0.761339 0.489859
vt 0.807649 0.472271
vt 0.692812 0.630511
vt 0.186708 0.633079
vt 0.168367 0.634561
vt 0.065805 0.475762
vt 0.124796 0.481825
vt 0.214465 0.319193
vt 0.255333 0.326590
vt 0.418025 0.370479
vt 0.371859 0.384668
vt 0.356510 0.316762
vt 0.469736 0.376262
vt 0.531304 0.333854
vt 0.480581 0.293946
vt 0.599058 0.305491
vt 0.625532 0.379185
vt 0.682219 0.368800
vt 0.083922 0.405709
vt 0.129052 0.402387
vt 0.176911 0.225904
vt 0.243396 0.212608
vt 0.291764 0.233742
vt 0.554838 0.236472
vt 0.616413 0.215855
vt 0.714892 0.230124
vt 0.669229 0.267160
vt 0.182665 0.474767
vt 0.165016 0.357070
vt 0.300286 0.365639
vt 0.714847 0.457146
vt 0.770710 0.399951
vt 0.294340 0.648692
vt 0.486478 0.654776
vt 0.625582 0.595636
vt 0.609327 0.684658
vt 0.667301 0.598793
vt 0.287389 0.865088
vt 0.263511 0.853169
vt 0.325817 0.852738
vt 0.406371 0.850976
vt 0.371969 0.840382
vt 0.442527 0.851796
vt 0.474844 0.855190
vt 0.568279 0.846967
vt 0.607647 0.756332
vt 0.651976 0.854846
vt 0.606128 0.843308
vt 0.221154 0.758521
vt 0.230104 0.863886
vt 0.193221 0.869320
vt 0.260448 0.741251
vt 0.321730 0.921172
vt 0.346200 0.890326
vt 0.362024 0.941773
vt 0.375380 0.902107
vt 0.392908 0.964840
vt 0.544790 0.965753
vt 0.522668 0.914546
vt 0.566184 0.923220
vt 0.604408 0.887767
vt 0.606965 0.931164
vt 0.649709 0.923961
vt 0.228806 0.920907
vt 0.207385 0.946556
vt 0.275362 0.922078
vt 0.327469 0.964789
vt 0.406026 0.915883
vt 0.437795 0.968096
vt 0.445566 0.914686
vt 0.489841 0.969470
vt 0.484114 0.939168
vt 0.601354 0.967112
vt 0.651731 0.971502
vt 0.222482 0.975243
vt 0.278733 0.967515
vt 0.392440 0.174672
vt 0.415090 0.297313
vt 0.436233 0.240506
vt 0.519987 0.222109
vt 0.757255 0.200698
vt 0.816626 0.272928
vt 0.747553 0.333078
vt 0.033422 0.385327
vt 0.011684 0.282235
vt 0.054707 0.316290
vt 0.115623 0.261045
vt 0.350493 0.090625
vt 0.338940 0.218461
vt 0.445950 0.079457
vt 0.464338 0.175041
vt 0.380989 0.037019
vt 0.036422 0.196193
vt 0.075543 0.225447
vt 0.372489 0.732640
vt 0.535882 0.854209
vt 0.223040 0.702554
vt 0.259076 0.674020
vt 0.848132 0.766804
vt 0.805834 0.771441
vt 0.769759 0.751159
vt 0.751207 0.695101
vt 0.879163 0.659678
vt 0.883870 0.742090
vt 0.768267 0.657994
vt 0.839413 0.632272
vt 0.736301 0.843294
vt 0.736213 0.883353
vt 0.711347 0.877839
vt 0.761933 0.850481
vt 0.787987 0.880467
vt 0.802794 0.859699
vt 0.822523 0.897925
vt 0.789934 0.914403
vt 0.806035 0.936092
vt 0.775424 0.950303
vt 0.737502 0.944110
vt 0.756599 0.912255
vt 0.713359 0.911406
vt 0.504328 0.841048
vt 0.501067 0.903951
vt 0.685517 0.864697
vt 0.325110 0.010174
vt 0.405231 0.006782
vt 0.773687 0.022459
vt 0.807414 0.125645
vt 0.247981 0.606152
vt 0.214557 0.601679
vt 0.837698 0.369087
vt 0.846603 0.184271
vt 0.679275 0.946229
vt 0.360414 0.976879
vt 0.671921 0.971162
vt 0.200000 0.676100
vt 0.750262 0.726158
vt 0.823681 0.781100
vt 0.897278 0.692787
vt 0.802515 0.633711
vt 0.788884 0.837122
s 1
usemtl Standard_7
f 157/15/7 61/16/8 9/17/9
f 144/18/10 63/19/11 11/20/12
f 11/20/12 63/19/11 10/21/13
f 16/22/14 18/23/15 69/24/16
f 18/23/15 70/25/17 17/26/18
f 18/23/15 72/27/19 70/25/17
f 21/28/20 19/29/21 20/30/22
f 20/30/22 19/29/21 72/27/19
f 146/31/23 19/29/21 21/28/20
f 22/32/24 147/33/25 74/34/26
f 157/15/7 147/33/25 23/35/27
f 85/36/28 101/37/29 98/38/30
f 25/39/31 148/40/32 155/41/33
f 25/39/31 149/42/34 148/40/32
f 150/43/35 26/44/36 27/45/37
f 29/46/38 28/47/39 150/43/35
f 31/48/40 151/49/41 156/50/42
f 31/48/40 152/51/43 151/49/41
f 33/52/44 32/53/45 36/54/46
f 77/55/47 39/56/48 86/57/49
f 88/58/50 87/59/51 78/60/52
f 78/60/52 79/61/53 88/58/50
f 89/62/54 88/58/50 79/61/53
f 79/61/53 80/63/55 89/62/54
f 80/63/55 45/64/56 91/65/57
f 80/63/55 91/65/57 89/62/54
f 45/64/56 47/66/58 91/65/57
f 34/67/59 92/68/60 48/69/61
f 81/70/62 55/71/63 95/72/64
f 96/73/65 95/74/64 55/75/63
f 55/75/63 35/76/66 96/73/65
f 33/52/44 135/77/67 136/78/68
f 36/54/46 135/77/67 33/52/44
f 42/79/69 41/80/70 40/81/71
f 45/64/56 43/82/72 46/83/73
f 46/83/73 43/82/72 44/84/74
f 45/64/56 46/83/73 47/66/58
f 140/85/75 47/66/58 46/83/73
f 48/69/61 140/85/75 49/86/76
f 34/67/59 49/86/76 50/87/77
f 58/88/78 57/89/79 35/76/66
f 135/77/67 60/90/80 62/91/81
f 61/16/8 62/91/81 60/90/80
f 63/19/11 64/92/82 62/91/81
f 70/25/17 139/93/83 17/26/18
f 70/25/17 71/94/84 139/93/83
f 72/27/19 142/95/85 141/96/86
f 61/16/8 60/90/80 9/17/9
f 36/54/46 82/97/87 37/98/88
f 39/56/48 77/55/47 38/99/89
f 42/79/69 78/60/52 41/80/70
f 43/82/72 80/63/55 79/61/53
f 43/82/72 45/64/56 80/63/55
f 50/87/77 51/100/90 34/67/59
f 55/71/63 81/70/62 53/101/91
f 37/98/88 82/97/87 57/89/79
f 83/102/92 86/57/49 85/36/28
f 86/57/49 83/102/92 32/53/45
f 155/41/33 87/59/51 88/58/50
f 90/103/93 89/62/54 91/65/57
f 92/68/60 93/104/94 29/46/38
f 29/46/38 93/104/94 30/105/95
f 156/50/42 94/106/96 95/72/64
f 98/38/30 99/107/97 100/108/98
f 101/37/29 102/109/99 99/107/97
f 148/40/32 165/110/100 163/111/101
f 149/42/34 165/110/100 148/40/32
f 166/112/102 165/110/100 149/42/34
f 149/42/34 103/113/103 166/112/102
f 28/47/39 106/114/104 150/43/35
f 108/115/105 109/116/106 107/117/107
f 152/51/43 109/116/106 151/49/41
f 152/118/43 167/119/108 110/120/109
f 100/108/98 167/119/108 153/121/110
f 112/122/111 114/123/112 126/124/113
f 164/125/114 126/124/113 114/123/112
f 126/124/113 164/125/114 128/126/115
f 131/127/116 119/128/117 120/129/118
f 121/130/119 122/131/120 120/129/118
f 121/130/119 123/132/121 122/131/120
f 124/133/122 125/134/123 110/120/109
f 99/107/97 111/135/124 167/119/108
f 126/124/113 113/136/125 112/122/111
f 115/137/126 129/138/127 128/126/115
f 116/139/128 130/140/129 129/138/127
f 117/141/130 130/140/129 116/139/128
f 122/131/120 132/142/131 120/129/118
f 123/132/121 133/143/132 132/142/131
f 124/133/122 134/144/133 125/134/123
f 124/133/122 158/145/134 134/144/133
f 60/90/80 135/77/67 37/98/88
f 136/78/68 64/92/82 38/99/89
f 62/91/81 64/92/82 136/78/68
f 65/146/135 138/147/136 40/81/71
f 66/148/137 138/147/136 65/146/135
f 138/147/136 44/84/74 43/82/72
f 46/83/73 68/149/138 139/93/83
f 44/84/74 68/149/138 46/83/73
f 141/96/86 140/85/75 71/94/84
f 141/96/86 142/95/85 50/87/77
f 73/150/139 143/151/140 52/152/141
f 54/153/142 143/154/140 56/155/143
f 58/88/78 56/155/143 59/156/144
f 60/90/80 37/98/88 59/156/144
f 62/91/81 61/16/8 63/19/11
f 63/19/11 144/18/10 64/92/82
f 144/18/10 145/157/145 137/158/146
f 137/158/146 64/92/82 144/18/10
f 65/146/135 15/159/147 67/160/148
f 15/159/147 65/146/135 13/161/149
f 71/94/84 70/25/17 72/27/19
f 142/95/85 72/27/19 19/29/21
f 19/29/21 146/31/23 73/150/139
f 73/150/139 142/95/85 19/29/21
f 76/162/150 147/33/25 75/163/151
f 76/162/150 74/34/26 147/33/25
f 163/111/101 101/37/29 24/164/152
f 105/165/153 26/44/36 150/43/35
f 155/41/33 24/164/152 85/36/28
f 155/41/33 88/58/50 25/39/31
f 25/39/31 90/103/93 26/44/36
f 26/44/36 90/103/93 27/45/37
f 90/103/93 91/65/57 27/45/37
f 27/45/37 92/68/60 29/46/38
f 156/50/42 95/72/64 31/48/40
f 31/166/40 154/167/154 153/121/110
f 14/168/155 12/169/156 11/170/12
f 14/168/155 157/171/7 20/172/22
f 157/171/7 14/168/155 11/170/12
f 14/168/155 20/172/22 16/173/14
f 23/174/27 21/175/20 157/171/7
f 157/171/7 21/175/20 20/172/22
f 113/176/125 161/177/157 158/178/134
f 113/176/125 127/179/158 161/177/157
f 162/180/159 127/179/158 129/181/127
f 130/182/129 162/180/159 129/181/127
f 130/182/129 159/183/160 162/180/159
f 131/184/116 159/183/160 130/182/129
f 132/185/131 159/183/160 131/184/116
f 133/186/132 160/187/161 132/185/131
f 133/186/132 134/188/133 160/187/161
f 160/187/161 134/188/133 161/177/157
f 161/177/157 162/180/159 160/187/161
f 114/123/112 102/109/99 163/111/101
f 165/110/100 164/125/114 163/111/101
f 114/123/112 163/111/101 164/125/114
f 165/110/100 116/139/128 115/137/126
f 119/128/117 104/189/162 105/165/153
f 103/113/103 104/189/162 118/190/163
f 120/129/118 105/165/153 106/114/104
f 105/165/153 120/129/118 119/128/117
f 121/130/119 106/114/104 107/117/107
f 106/114/104 121/130/119 120/129/118
f 110/191/109 123/132/121 109/116/106
f 157/15/7 10/21/13 61/16/8
f 12/192/156 145/157/145 144/18/10
f 11/20/12 12/192/156 144/18/10
f 12/192/156 13/161/149 145/157/145
f 14/193/155 15/159/147 13/161/149
f 16/22/14 69/24/16 15/159/147
f 15/159/147 14/193/155 16/22/14
f 18/23/15 17/26/18 69/24/16
f 18/23/15 20/30/22 72/27/19
f 22/194/24 74/195/26 146/31/23
f 21/28/20 22/194/24 146/31/23
f 22/32/24 23/35/27 147/33/25
f 32/53/45 33/52/44 77/55/47 86/57/49
f 83/102/92 85/36/28 98/38/30
f 24/164/152 155/41/33 148/40/32
f 25/39/31 26/44/36 149/42/34
f 29/46/38 150/43/35 27/45/37
f 28/47/39 29/46/38 108/115/105
f 29/46/38 30/105/95 108/115/105
f 151/49/41 108/115/105 30/105/95
f 30/105/95 156/50/42 151/49/41
f 31/166/40 153/121/110 152/118/43
f 36/54/46 84/196/164 82/97/87
f 84/196/164 36/54/46 32/53/45
f 86/57/49 87/59/51 155/41/33 85/36/28
f 86/57/49 39/56/48 87/59/51
f 78/60/52 87/59/51 39/56/48
f 48/69/61 91/65/57 47/66/58
f 91/65/57 48/69/61 92/68/60
f 34/67/59 93/104/94 92/68/60
f 34/67/59 51/100/90 93/104/94
f 93/104/94 51/100/90 94/106/96
f 81/70/62 94/106/96 51/100/90
f 81/70/62 95/72/64 94/106/96
f 35/76/66 97/197/165 96/73/65
f 35/76/66 82/97/87 97/197/165
f 97/197/165 82/97/87 84/196/164
f 36/54/46 37/98/88 135/77/67
f 33/52/44 136/78/68 38/99/89
f 41/80/70 39/56/48 40/81/71
f 38/99/89 40/81/71 39/56/48
f 40/81/71 138/147/136 42/79/69
f 138/147/136 43/82/72 42/79/69
f 48/69/61 47/66/58 140/85/75
f 53/101/91 51/100/90 52/152/141
f 50/87/77 52/152/141 51/100/90
f 53/101/91 54/198/142 55/71/63
f 53/101/91 143/151/140 54/198/142
f 58/88/78 55/75/63 54/153/142
f 56/155/143 58/88/78 54/153/142
f 59/156/144 57/89/79 58/88/78
f 137/158/146 145/157/145 65/146/135
f 66/148/137 65/146/135 67/160/148
f 69/24/16 68/149/138 67/160/148
f 69/24/16 17/26/18 68/149/138
f 17/26/18 139/93/83 68/149/138
f 72/27/19 141/96/86 71/94/84
f 74/195/26 143/151/140 73/150/139
f 143/151/140 74/195/26 76/199/150
f 56/155/143 76/162/150 75/163/151
f 9/17/9 60/90/80 59/156/144
f 38/99/89 77/55/47 33/52/44
f 41/80/70 78/60/52 39/56/48
f 42/79/69 43/82/72 79/61/53
f 42/79/69 79/61/53 78/60/52
f 49/86/76 34/67/59 48/69/61
f 51/100/90 53/101/91 81/70/62
f 55/75/63 58/88/78 35/76/66
f 57/89/79 82/97/87 35/76/66
f 154/167/154 84/196/164 83/102/92
f 84/196/164 32/53/45 83/102/92
f 93/104/94 94/106/96 156/50/42 30/105/95
f 27/45/37 91/65/57 92/68/60
f 112/122/111 113/136/125 158/145/134 111/135/124
f 154/167/154 96/73/65 97/197/165
f 154/167/154 97/197/165 84/196/164
f 98/38/30 101/37/29 99/107/97
f 101/37/29 163/111/101 102/109/99
f 24/164/152 148/40/32 163/111/101
f 149/42/34 26/44/36 103/113/103
f 26/44/36 104/189/162 103/113/103
f 26/44/36 105/165/153 104/189/162
f 105/165/153 150/43/35 106/114/104
f 28/47/39 107/117/107 106/114/104
f 28/47/39 108/115/105 107/117/107
f 152/51/43 110/191/109 109/116/106
f 152/118/43 153/121/110 167/119/108
f 128/126/115 164/125/114 115/137/126
f 129/138/127 115/137/126 116/139/128
f 103/113/103 117/141/130 116/139/128
f 103/113/103 118/190/163 117/141/130
f 119/128/117 117/141/130 118/190/163
f 110/191/109 125/200/123 123/132/121
f 167/119/108 111/135/124 124/133/122
f 126/124/113 128/126/115 113/136/125
f 127/201/158 113/136/125 128/126/115
f 117/141/130 119/128/117 130/140/129
f 119/128/117 131/127/116 130/140/129
f 120/129/118 132/142/131 131/127/116
f 123/132/121 132/142/131 122/131/120
f 133/143/132 125/200/123 134/202/133
f 123/132/121 125/200/123 133/143/132
f 124/133/122 111/135/124 158/145/134
f 62/91/81 136/78/68 135/77/67
f 40/81/71 38/99/89 64/92/82
f 137/158/146 40/81/71 64/92/82
f 65/146/135 40/81/71 137/158/146
f 44/84/74 138/147/136 66/148/137
f 67/160/148 44/84/74 66/148/137
f 67/160/148 68/149/138 44/84/74
f 46/83/73 139/93/83 140/85/75
f 139/93/83 71/94/84 140/85/75
f 50/87/77 49/86/76 141/96/86
f 49/86/76 140/85/75 141/96/86
f 52/152/141 50/87/77 142/95/85
f 53/101/91 52/152/141 143/151/140
f 142/95/85 73/150/139 52/152/141
f 143/154/140 76/162/150 56/155/143
f 56/155/143 75/163/151 59/156/144
f 57/89/79 59/156/144 37/98/88
f 61/16/8 10/21/13 63/19/11
f 13/161/149 65/146/135 145/157/145
f 67/160/148 15/159/147 69/24/16
f 73/150/139 146/31/23 74/195/26
f 75/163/151 147/33/25 59/156/144
f 9/17/9 59/156/144 147/33/25
f 147/33/25 157/15/7 9/17/9
f 109/116/106 108/115/105 151/49/41
f 98/38/30 100/108/98 153/121/110
f 24/164/152 101/37/29 85/36/28
f 90/103/93 25/39/31 89/62/54
f 88/58/50 89/62/54 25/39/31
f 154/167/154 31/166/40 96/73/65
f 95/203/64 96/73/65 31/166/40
f 10/204/13 157/171/7 11/170/12
f 13/205/149 12/169/156 14/168/155
f 16/173/14 20/172/22 18/206/15
f 21/175/20 23/174/27 22/207/24
f 128/208/115 129/181/127 127/179/158
f 98/38/30 153/121/110 154/167/154 83/102/92
f 160/187/161 159/183/160 132/185/131
f 134/188/133 158/178/134 161/177/157
f 161/177/157 127/179/158 162/180/159
f 162/180/159 159/183/160 160/187/161
f 99/107/97 112/122/111 111/135/124
f 102/109/99 114/123/112 112/122/111
f 112/122/111 99/107/97 102/109/99
f 164/125/114 165/110/100 115/137/126
f 116/139/128 165/110/100 166/112/102
f 166/112/102 103/113/103 116/139/128
f 119/128/117 118/190/163 104/189/162
f 109/116/106 121/130/119 107/117/107
f 121/130/119 109/116/106 123/132/121
f 167/119/108 124/133/122 110/120/109
f 167/119/108 100/108/98 99/107/97